<svg data-v-0dd9719b="" version="1.0" xmlns="http://www.w3.org/2000/svg" xmlns:xlink="http://www.w3.org/1999/xlink" width="100%" height="100%" viewBox="0 0 340.000000 250.000000" preserveAspectRatio="xMidYMid meet" color-interpolation-filters="sRGB" style="margin: auto;"> <rect data-v-0dd9719b="" x="0" y="0" width="100%" height="100%" fill="#fff" fill-opacity="1" class="background"></rect> <rect data-v-0dd9719b="" x="0" y="0" width="100%" height="100%" fill="url(#watermark)" fill-opacity="1" class="watermarklayer"></rect> <g data-v-0dd9719b="" fill="#036eb7" class="icon-text-wrapper icon-svg-group iconsvg" transform="translate(48.349998474121094,98.74202346801758)"><g class="iconsvg-imagesvg" transform="translate(0,0)"><g><rect fill="#036eb7" fill-opacity="0" stroke-width="2" x="0" y="0" width="60" height="52.51595172033505" class="image-rect"></rect> <svg x="0" y="0" width="60" height="52.51595172033505" filtersec="colorsb1942853883" class="image-svg-svg primary" style="overflow: visible;"><svg xmlns="http://www.w3.org/2000/svg" viewBox="0.010000000707805157 0 783.760009765625 686.0003662109375"><path d="M185.88 201.2l265.73-48.53-192.91 198s123.92-8.94 200.57 11.49 127.75 48.55 127.75 48.55l-25.55 58.77 39.6 23-31.94 58.76S428.62 472 327.69 455.43s-287.45 0-287.45 0l194.19-213.34zM643.24 428.61l-28.11 58.76 40.89 21.72 30.02-57.49-42.8-22.99zM741.61 475.88l-30.67 54.93 40.89 20.44 31.94-57.49-42.16-17.88zM659.84 513.56l-31.93 59.41 45.99 24.27 33.21-58.77-47.27-24.91z" fill="#036eb7"></path><path d="M537.7 247.28s-3.83 12.37-11.66 20.6-20.93 11-20.93 11 13 4.05 20.6 11.66 11 20.92 11 20.92a41.77 41.77 0 0 1 11.65-20.59 45.08 45.08 0 0 1 20.99-11.01s-13.85-4.91-20.6-11.65-11.05-20.93-11.05-20.93zM493.43 212.05c-5.45-5.44-8.92-16.89-8.92-16.89s-3.08 10-9.41 16.62-16.89 8.92-16.89 8.92 10.5 3.26 16.62 9.41 8.93 16.89 8.93 16.89a33.58 33.58 0 0 1 9.4-16.62 36.32 36.32 0 0 1 16.88-8.91s-11.17-3.98-16.61-9.42zM550.54 230.19a53.33 53.33 0 0 1 14.92-26.36 57.61 57.61 0 0 1 26.77-14.13s-17.72-6.29-26.34-14.92S551.74 148 551.74 148s-4.89 15.83-14.91 26.35-26.79 14.14-26.79 14.14 16.64 5.18 26.36 14.93 14.14 26.77 14.14 26.77z" fill="#036eb7"></path><path d="M343.01 0C153.58 0 .01 153.57.01 343s153.58 343 343 343a341.68 341.68 0 0 0 223.45-82.75l-81.11-48.75a253.7 253.7 0 0 1-142.28 43.38c-140.8 0-254.92-114.11-254.92-254.88S202.27 88.15 343.02 88.15a254.22 254.22 0 0 1 189.16 84.07c.49-.46 1-.94 1.45-1.43 12-12.65 17.91-31.65 17.91-31.65s6.61 21.79 17 32.16 31.64 17.91 31.64 17.91a69.27 69.27 0 0 0-32.16 17 59.3 59.3 0 0 0-5.92 6.54A253.68 253.68 0 0 1 597.88 343c0 3 0 6-.15 8.9l85 38.71a343.17 343.17 0 0 0 3.3-47.61C686.04 153.57 532.45 0 343.01 0z" fill="#036eb7"></path></svg></svg> <!----></g></g> <g transform="translate(67,1.0960693359375)"><g data-gra="path-name" fill-rule="" class="tp-name iconsvg-namesvg" transform="translate(0,0)"><g transform="scale(1)"><g><path d="M32.83-28.22Q33.33-28.22 33.59-27.89 33.86-27.57 33.86-27.2L33.86-27.2Q33.86-26.83 33.59-26.5 33.33-26.17 32.83-26.17L32.83-26.17 18.88-26.17 18.88-21.39 18.88-21.31 25.14-21.31Q28.27-21.31 29.79-19.58 31.31-17.86 31.31-15.51L31.31-15.51 31.31-0.45Q31.31 1.23 30.3 2.1 29.29 2.96 27.61 3.04L27.61 3.04Q27.15 3.09 26.87 2.76 26.58 2.43 26.58 2.06L26.58 2.06Q26.58 1.15 27.48 0.99L27.48 0.99Q28.55 0.78 28.9 0.25 29.25-0.29 29.25-1.81L29.25-1.81 29.25-15.31Q29.25-16.91 28.27-18.08 27.28-19.25 24.73-19.25L24.73-19.25 10.86-19.25Q8.31-19.25 7.32-18.08 6.34-16.91 6.34-15.31L6.34-15.31 6.34 2.55Q6.34 3.04 6.01 3.31 5.68 3.58 5.31 3.58L5.31 3.58Q4.94 3.58 4.61 3.31 4.28 3.04 4.28 2.55L4.28 2.55 4.28-15.51Q4.28-17.86 5.8-19.58 7.32-21.31 10.45-21.31L10.45-21.31 16.83-21.31 16.83-21.39 16.83-26.17 2.84-26.17Q2.35-26.17 2.08-26.5 1.81-26.83 1.81-27.2L1.81-27.2Q1.81-27.57 2.08-27.89 2.35-28.22 2.84-28.22L2.84-28.22 16.83-28.22 16.83-31.97Q16.83-32.46 17.16-32.73 17.49-33 17.86-33L17.86-33Q18.23-33 18.56-32.73 18.88-32.46 18.88-31.97L18.88-31.97 18.88-28.22 32.83-28.22ZM15.35-12.96Q15.06-12.75 14.69-12.75L14.69-12.75Q14.19-12.75 13.91-13.21L13.91-13.21 11.77-16.37Q11.56-16.7 11.56-16.99L11.56-16.99Q11.56-17.49 12.01-17.77L12.01-17.77Q12.34-17.98 12.63-17.98L12.63-17.98Q13.12-17.98 13.45-17.53L13.45-17.53 15.59-14.4Q15.8-14.15 15.8-13.78L15.8-13.78Q15.8-13.25 15.35-12.96L15.35-12.96ZM27.4-5.47Q27.4-5.1 27.13-4.77 26.87-4.44 26.37-4.44L26.37-4.44 18.84-4.44 18.84 1.81Q18.84 2.3 18.51 2.57 18.19 2.84 17.81 2.84L17.81 2.84Q17.44 2.84 17.12 2.57 16.79 2.3 16.79 1.81L16.79 1.81 16.79-4.44 9.22-4.44Q8.72-4.44 8.45-4.77 8.19-5.1 8.19-5.47L8.19-5.47Q8.19-5.84 8.45-6.17 8.72-6.5 9.22-6.5L9.22-6.5 16.79-6.5 16.79-10.57 10-10.57Q9.5-10.57 9.24-10.9 8.97-11.23 8.97-11.6L8.97-11.6Q8.97-11.97 9.24-12.3 9.5-12.63 10-12.63L10-12.63 18.88-12.63 22.13-17.49Q22.42-17.94 22.92-17.94L22.92-17.94Q23.29-17.94 23.57-17.73L23.57-17.73Q23.99-17.44 23.99-16.91L23.99-16.91Q23.99-16.62 23.82-16.33L23.82-16.33 21.35-12.63 25.59-12.63Q26.08-12.63 26.35-12.3 26.62-11.97 26.62-11.6L26.62-11.6Q26.62-11.23 26.35-10.9 26.08-10.57 25.59-10.57L25.59-10.57 18.84-10.57 18.84-6.5 26.37-6.5Q26.87-6.5 27.13-6.17 27.4-5.84 27.4-5.47L27.4-5.47ZM68.83-27.85Q69.33-27.85 69.59-27.52 69.86-27.2 69.86-26.83L69.86-26.83Q69.86-26.45 69.59-26.13 69.33-25.8 68.83-25.8L68.83-25.8 39.21-25.8Q38.72-25.8 38.45-26.13 38.18-26.45 38.18-26.83L38.18-26.83Q38.18-27.2 38.45-27.52 38.72-27.85 39.21-27.85L39.21-27.85 52.58-27.85 52.58-31.89Q52.58-32.38 52.91-32.65 53.24-32.91 53.61-32.91L53.61-32.91Q53.98-32.91 54.31-32.65 54.64-32.38 54.64-31.89L54.64-31.89 54.64-27.85 68.83-27.85ZM65.42-15.35Q65.42-14.07 64.78-12.84 64.14-11.6 62.76-10.78 61.39-9.96 59.25-9.96L59.25-9.96 55.54-9.96 55.54-0.45Q55.54 2.3 53.07 2.84L53.07 2.84Q52.91 2.88 52.5 2.96 52.09 3.04 51.76 3.04L51.76 3.04Q51.35 3.04 51.08 2.74 50.81 2.43 50.81 2.06L50.81 2.06Q50.81 1.69 51.08 1.4 51.35 1.11 51.84 1.03L51.84 1.03Q52.79 0.86 53.14 0.29 53.49-0.29 53.49-1.81L53.49-1.81 53.49-9.96 48.71-9.96Q46.57-9.96 45.2-10.78 43.82-11.6 43.18-12.84 42.54-14.07 42.54-15.35L42.54-15.35 42.54-16.33Q42.54-17.61 43.18-18.84 43.82-20.08 45.2-20.9 46.57-21.72 48.71-21.72L48.71-21.72 59.25-21.72Q61.39-21.72 62.76-20.9 64.14-20.08 64.78-18.84 65.42-17.61 65.42-16.33L65.42-16.33 65.42-15.35ZM49.12-12.01L58.83-12.01Q61.3-12.01 62.33-13.12 63.36-14.24 63.36-15.55L63.36-15.55 63.36-16.13Q63.36-17.44 62.33-18.56 61.3-19.67 58.83-19.67L58.83-19.67 49.12-19.67Q46.61-19.67 45.61-18.56 44.6-17.44 44.6-16.13L44.6-16.13 44.6-15.55Q44.6-14.24 45.61-13.12 46.61-12.01 49.12-12.01L49.12-12.01ZM45.87-7.04Q46.08-7.36 46.53-7.36L46.53-7.36Q46.99-7.36 47.31-7.04L47.31-7.04Q47.6-6.75 47.6-6.34L47.6-6.34Q47.6-5.92 47.31-5.6L47.31-5.6 40.77 0.95Q40.44 1.23 40.03 1.23L40.03 1.23Q39.62 1.23 39.33 0.95L39.33 0.95Q39 0.62 39 0.16L39 0.16Q39-0.29 39.33-0.49L39.33-0.49 45.87-7.04ZM61.76-6.87L68.67-0.37Q69-0.04 69 0.33L69 0.33Q69 0.74 68.67 1.07L68.67 1.07Q68.34 1.4 67.93 1.4L67.93 1.4Q67.56 1.4 67.23 1.07L67.23 1.07 60.32-5.43Q59.99-5.76 59.99-6.13L59.99-6.13Q59.99-6.54 60.32-6.87L60.32-6.87Q60.64-7.2 61.06-7.2L61.06-7.2Q61.43-7.2 61.76-6.87L61.76-6.87ZM88.62-30.49Q91.71-30.49 93.04-28.8 94.38-27.11 94.38-24.69L94.38-24.69 94.34-1.85Q94.34-0.16 93.31 0.76 92.28 1.69 90.64 1.77L90.64 1.77Q90.19 1.81 89.9 1.48 89.61 1.15 89.61 0.78L89.61 0.78Q89.61-0.12 90.51-0.29L90.51-0.29Q91.58-0.49 91.93-1.03 92.28-1.56 92.28-3.09L92.28-3.09 92.28-9.67 88.17-9.67Q87.72-5.8 86.59-2.96 85.45-0.12 83.19 3.09L83.19 3.09Q82.86 3.54 82.37 3.54L82.37 3.54Q82 3.54 81.79 3.37L81.79 3.37Q81.3 3.09 81.3 2.55L81.3 2.55Q81.3 2.3 81.5 1.97L81.5 1.97Q83.68-1.19 84.71-3.74 85.74-6.29 86.11-9.67L86.11-9.67 84.43-9.67Q83.93-9.67 83.66-10 83.4-10.33 83.4-10.7L83.4-10.7Q83.4-11.07 83.66-11.4 83.93-11.73 84.43-11.73L84.43-11.73 86.28-11.73Q86.44-14.07 86.44-17.86L86.44-17.86 86.44-18.76 84.59-18.76Q84.1-18.76 83.83-19.09 83.56-19.42 83.56-19.79L83.56-19.79Q83.56-20.16 83.83-20.49 84.1-20.82 84.59-20.82L84.59-20.82 86.44-20.82 86.44-28.43 84.26-28.43Q83.77-28.43 83.5-28.76 83.23-29.09 83.23-29.46L83.23-29.46Q83.23-29.83 83.5-30.16 83.77-30.49 84.26-30.49L84.26-30.49 88.62-30.49ZM103.89-15.02Q105.86-11.44 105.86-6.95L105.86-6.95Q105.86-4.53 104.98-3.04 104.09-1.56 101.58-1.44L101.58-1.44Q101.17-1.4 100.84-1.73 100.51-2.06 100.51-2.51L100.51-2.51Q100.51-2.92 100.76-3.21 101.01-3.5 101.54-3.5L101.54-3.5Q102.73-3.5 103.29-4.05 103.84-4.61 103.95-5.35 104.05-6.09 104.05-7.49L104.05-7.49Q104.05-11.44 101.79-15.02L101.79-15.02Q101.05-16.17 101.05-16.5L101.05-16.5Q101.05-16.79 101.5-18.68L101.5-18.68Q102.57-23.45 103.31-27.03L103.31-27.03Q103.43-27.48 103.43-27.73L103.43-27.73Q103.43-28.14 102.65-28.14L102.65-28.14 101.09-28.14Q98.66-28.14 98.66-25.84L98.66-25.84 98.66 2.96Q98.66 3.46 98.33 3.72 98 3.99 97.63 3.99L97.63 3.99Q97.26 3.99 96.93 3.72 96.6 3.46 96.6 2.96L96.6 2.96 96.6-26.29Q96.6-28.27 97.65-29.23 98.7-30.2 100.47-30.2L100.47-30.2 103.64-30.2Q104.71-30.2 105.14-29.64 105.57-29.09 105.57-28.27L105.57-28.27Q105.57-27.57 105.37-26.95L105.37-26.95 103.23-17.9Q102.98-17.07 102.98-16.87L102.98-16.87Q102.98-16.58 103.39-15.88 103.8-15.18 103.89-15.02L103.89-15.02ZM82.45-6.99Q82.45-5.18 81.44-4.11 80.43-3.04 79.08-3.04L79.08-3.04 78.5-3.04Q77.14-3.04 76.16-4.11 75.17-5.18 75.17-6.99L75.17-6.99 75.17-25.06Q75.17-26.87 76.18-27.94 77.18-29.01 78.54-29.01L78.54-29.01 79.08-29.01Q80.43-29.01 81.44-27.94 82.45-26.87 82.45-25.06L82.45-25.06 82.45-6.99ZM88.5-28.43L88.5-20.82 92.32-20.82 92.32-24.48Q92.32-26.13 91.58-27.24 90.84-28.35 88.5-28.43L88.5-28.43ZM80.39-7.2L80.39-24.85Q80.39-25.88 79.92-26.41 79.45-26.95 78.83-26.95L78.83-26.95 78.79-26.95Q78.17-26.95 77.7-26.41 77.23-25.88 77.23-24.85L77.23-24.85 77.23-7.2Q77.23-6.17 77.7-5.64 78.17-5.1 78.79-5.1L78.79-5.1 78.83-5.1Q79.45-5.1 79.92-5.64 80.39-6.17 80.39-7.2L80.39-7.2ZM88.33-11.73L92.28-11.73 92.32-18.76 88.5-18.76 88.5-17.2Q88.5-13.87 88.33-11.73L88.33-11.73ZM110.39-16.09Q117.67-21.56 123.35-29.66L123.35-29.66Q124.83-31.76 126.06-31.76L126.06-31.76Q127.25-31.76 128.49-29.87L128.49-29.87Q133.88-21.81 141.65-16L141.65-16Q141.98-15.8 141.98-15.26L141.98-15.26Q141.98-14.89 141.78-14.61L141.78-14.61Q141.49-14.19 140.96-14.19L140.96-14.19Q140.63-14.19 140.3-14.44L140.3-14.44Q132.56-20.12 127.13-28.06L127.13-28.06Q126.47-29.09 126.02-29.09L126.02-29.09Q125.61-29.09 124.91-28.1L124.91-28.1Q119.27-20.2 111.7-14.44L111.7-14.44Q111.41-14.24 111-14.24L111-14.24Q110.51-14.24 110.18-14.56L110.18-14.56Q109.97-14.77 109.97-15.22L109.97-15.22Q109.97-15.84 110.39-16.09L110.39-16.09ZM124.99-18.84Q124.99-19.34 125.32-19.6 125.65-19.87 126.02-19.87L126.02-19.87Q126.39-19.87 126.72-19.6 127.05-19.34 127.05-18.84L127.05-18.84 127.05 2.96Q127.05 3.46 126.72 3.72 126.39 3.99 126.02 3.99L126.02 3.99Q125.65 3.99 125.32 3.72 124.99 3.46 124.99 2.96L124.99 2.96 124.99-18.84ZM160.09-17.73Q159.84-17.65 159.72-17.65L159.72-17.65Q158.98-17.65 158.77-18.31L158.77-18.31Q155.48-26.54 153.79-30.57L153.79-30.57Q153.71-30.9 153.71-30.98L153.71-30.98Q153.71-31.31 153.89-31.58 154.08-31.84 154.37-31.93L154.37-31.93Q154.61-32.01 154.74-32.01L154.74-32.01Q155.48-32.01 155.68-31.35L155.68-31.35Q157.37-27.32 160.66-19.09L160.66-19.09Q160.75-18.76 160.75-18.68L160.75-18.68Q160.75-18.35 160.56-18.08 160.37-17.81 160.09-17.73L160.09-17.73ZM147-17.16Q146.72-17.24 146.47-17.49 146.22-17.73 146.22-18.06L146.22-18.06 146.3-18.39Q149.23-24.19 150.42-29.87L150.42-29.87Q150.46-30.2 150.77-30.4 151.08-30.61 151.41-30.61L151.41-30.61Q151.82-30.61 152.17-30.24 152.52-29.87 152.39-29.33L152.39-29.33Q151.2-23.66 148.28-17.86L148.28-17.86Q148.07-17.4 147.72-17.24 147.37-17.07 147-17.16L147-17.16ZM161.4-27.94Q160.91-27.94 160.64-28.27 160.37-28.59 160.37-28.96L160.37-28.96Q160.37-29.33 160.64-29.66 160.91-29.99 161.4-29.99L161.4-29.99 177.08-29.99Q177.57-29.99 177.84-29.66 178.11-29.33 178.11-28.96L178.11-28.96Q178.11-28.59 177.84-28.27 177.57-27.94 177.08-27.94L177.08-27.94 170.25-27.94 169.06-22.79 169.8-22.79Q172.96-22.79 174.47-21.17 175.97-19.54 175.97-16.99L175.97-16.99 175.97-6.29Q175.97-5.8 175.64-5.53 175.31-5.27 174.94-5.27L174.94-5.27Q174.57-5.27 174.24-5.53 173.91-5.8 173.91-6.29L173.91-6.29 173.91-16.79Q173.91-18.39 172.92-19.56 171.94-20.74 169.39-20.74L169.39-20.74 168.6-20.74Q166.05-20.74 165.07-19.56 164.08-18.39 164.08-16.79L164.08-16.79 164.08-6.29Q164.08-5.8 163.75-5.53 163.42-5.27 163.05-5.27L163.05-5.27Q162.68-5.27 162.35-5.53 162.02-5.8 162.02-6.29L162.02-6.29 162.02-16.99Q162.02-19.25 163.21-20.82 164.41-22.38 166.92-22.71L166.92-22.71 168.15-27.94 161.4-27.94ZM177.45 1.69Q177.82 2.06 177.82 2.47L177.82 2.47Q177.82 2.88 177.49 3.21L177.49 3.21Q177.2 3.5 176.75 3.5L176.75 3.5Q176.38 3.5 176.05 3.21L176.05 3.21Q175.15 2.26 170.29-2.35L170.29-2.35 168.69-3.87Q167.82-1.93 165.99-0.19 164.16 1.56 160.83 3.66L160.83 3.66Q160.54 3.83 160.25 3.83L160.25 3.83Q159.68 3.83 159.39 3.37L159.39 3.37Q159.22 3.17 159.22 2.76L159.22 2.76Q159.22 2.18 159.68 1.93L159.68 1.93Q163.63-0.33 165.37-2.43 167.12-4.53 167.51-6.87 167.9-9.22 167.9-13.82L167.9-13.82 167.9-17.32Q167.9-17.81 168.23-18.08 168.56-18.35 168.93-18.35L168.93-18.35Q169.3-18.35 169.63-18.08 169.96-17.81 169.96-17.32L169.96-17.32 169.96-13.82Q169.96-11.07 169.84-9.26 169.71-7.45 169.39-5.97L169.39-5.97Q174.2-1.52 177.45 1.69L177.45 1.69ZM152.8-16.95Q156.01-16.95 157.25-15.35 158.48-13.74 158.36-10.74L158.36-10.74 157.99-2.47Q157.91-0.41 156.8 0.97 155.68 2.35 154 2.59L154 2.59Q153.55 2.63 153.22 2.3 152.89 1.97 152.89 1.56L152.89 1.56Q152.89 0.86 153.71 0.58L153.71 0.58Q155.85-0.21 155.97-2.76L155.97-2.76 156.3-10.45Q156.38-12.1 156.14-13 155.89-13.91 155.03-14.4 154.16-14.89 152.39-14.89L152.39-14.89 151.9-14.89 151.9-14.85Q151.82-10.57 151.51-7.82 151.2-5.06 150.25-2.39 149.31 0.29 147.41 3L147.41 3Q147.13 3.41 146.59 3.41L146.59 3.41Q146.26 3.41 145.97 3.21L145.97 3.21Q145.56 2.92 145.56 2.39L145.56 2.39Q145.56 2.02 145.77 1.77L145.77 1.77Q147.62-1.07 148.44-3.37 149.27-5.68 149.51-8.02 149.76-10.37 149.84-14.85L149.84-14.85 149.84-14.89 148.03-14.89Q147.54-14.89 147.27-15.22 147-15.55 147-15.92L147-15.92Q147-16.29 147.27-16.62 147.54-16.95 148.03-16.95L148.03-16.95 152.8-16.95Z" transform="translate(-1.809999942779541, 33)"></path></g> <!----> <!----> <!----> <!----> <!----> <!----> <!----></g></g> <g data-gra="path-slogan" fill-rule="" class="tp-slogan iconsvg-slogansvg" fill="#036eb7" transform="translate(0.4550018310546875,42.9900016784668)"><rect width="0"></rect> <rect x="178.38999938964844" width="0"></rect> <g transform="translate(0,0)"><g transform="scale(1)"><path d="M4.64-5.83L4.60-5.83L2.99 0L2.00 0L0.15-7.02L1.15-7.02L2.49-1.30L2.53-1.30L4.11-7.02L5.14-7.02L6.71-1.30L6.75-1.30L8.06-7.02L9.09-7.02L7.25 0L6.25 0L4.64-5.83ZM10.80-4.14L14.49-4.14L14.49-7.02L15.45-7.02L15.45 0L14.49 0L14.49-3.26L10.80-3.26L10.80 0L9.84 0L9.84-7.02L10.80-7.02L10.80-4.14ZM16.92-7.02L17.88-7.02L17.88 0L16.92 0L16.92-7.02ZM25.23-4.95L25.23-4.95L24.31-4.95Q23.97-6.37 22.35-6.41L22.35-6.41Q20.13-6.29 20.05-3.57L20.05-3.57Q20.05-0.65 22.39-0.65L22.39-0.65Q24.00-0.69 24.39-2.61L24.39-2.61L25.31-2.61Q24.89 0.04 22.20 0.12L22.20 0.12Q19.13 0 19.05-3.53L19.05-3.53Q19.21-7.06 22.35-7.21L22.35-7.21Q24.85-7.14 25.23-4.95ZM27.25-4.14L30.93-4.14L30.93-7.02L31.89-7.02L31.89 0L30.93 0L30.93-3.26L27.25-3.26L27.25 0L26.29 0L26.29-7.02L27.25-7.02L27.25-4.14ZM41.37-3.49L41.37-3.49Q41.22-6.25 38.91-6.41L38.91-6.41Q36.57-6.29 36.46-3.49L36.46-3.49Q36.57-0.77 38.91-0.65L38.91-0.65Q41.22-0.81 41.37-3.49ZM42.33-3.49L42.33-3.49Q42.10 0 38.91 0.12L38.91 0.12Q35.69 0 35.46-3.49L35.46-3.49Q35.65-7.14 38.91-7.21L38.91-7.21Q42.10-7.10 42.33-3.49ZM44.46-7.02L47.99-1.34L47.99-7.02L48.91-7.02L48.91 0L47.84 0L44.27-5.68L44.23-5.68L44.23 0L43.31 0L43.31-7.02L44.46-7.02ZM51.31-0.84L55.53-0.84L55.53 0L50.35 0L50.35-7.02L55.45-7.02L55.45-6.22L51.31-6.22L51.31-4.03L55.15-4.03L55.15-3.18L51.31-3.18L51.31-0.84ZM59.37-7.02L60.33-7.02L60.33 0L59.37 0L59.37-7.02ZM62.96-7.02L66.49-1.34L66.49-7.02L67.41-7.02L67.41 0L66.34 0L62.77-5.68L62.73-5.68L62.73 0L61.81 0L61.81-7.02L62.96-7.02ZM72.48-7.02L76.01-1.34L76.01-7.02L76.93-7.02L76.93 0L75.85 0L72.28-5.68L72.25-5.68L72.25 0L71.33 0L71.33-7.02L72.48-7.02ZM82.90 0L82.20-2.03L79.37-2.03L78.64 0L77.68 0L80.32-7.02L81.40-7.02L83.93 0L82.90 0ZM80.79-5.99L79.67-2.88L81.86-2.88L80.82-5.99L80.79-5.99ZM85.79-7.02L89.32-1.34L89.32-7.02L90.24-7.02L90.24 0L89.17 0L85.60-5.68L85.56-5.68L85.56 0L84.64 0L84.64-7.02L85.79-7.02ZM90.99-1.57L90.99-2.26L91.88-2.26L91.88-1.77Q91.88-0.61 92.95-0.61L92.95-0.61Q94.06-0.61 94.06-1.84L94.06-1.84L94.06-7.02L95.02-7.02L95.02-1.88Q94.98 0.08 92.99 0.12L92.99 0.12Q91.11 0.08 90.99-1.57L90.99-1.57ZM96.50-7.02L97.46-7.02L97.46 0L96.50 0L96.50-7.02ZM100.09-7.02L103.62-1.34L103.62-7.02L104.54-7.02L104.54 0L103.47 0L99.90-5.68L99.86-5.68L99.86 0L98.94 0L98.94-7.02L100.09-7.02ZM111.12-2.95L108.97-2.95L108.97-3.76L112.04-3.76L112.04 0L111.43 0L111.20-0.88Q110.39 0.08 108.90 0.12L108.90 0.12Q107.48 0.12 106.71-0.61L106.71-0.61Q105.56-1.69 105.60-3.57L105.60-3.57Q105.87-7.06 108.94-7.21L108.94-7.21Q111.54-7.06 111.93-4.91L111.93-4.91L111.01-4.91Q110.62-6.37 108.90-6.41L108.90-6.41Q106.71-6.25 106.59-3.53L106.59-3.53Q106.59-0.61 108.94-0.61L108.94-0.61Q109.78-0.61 110.39-1.07L110.39-1.07Q111.16-1.69 111.12-2.95L111.12-2.95ZM116.11-7.02L117.07-7.02L117.07 0L116.11 0L116.11-7.02ZM123.69-4.99L123.69-4.99L122.81-4.99Q122.73-6.33 121.04-6.41L121.04-6.41Q119.47-6.37 119.47-5.18L119.47-5.18Q119.47-4.41 120.32-4.30L120.32-4.30L122.31-3.84Q123.88-3.45 123.88-1.92L123.88-1.92Q123.85 0.04 121.12 0.12L121.12 0.12Q119.62 0.12 119.01-0.50L119.01-0.50Q118.24-1.07 118.28-2.26L118.28-2.26L119.20-2.26Q119.24-0.65 121.12-0.61L121.12-0.61Q122.96-0.65 123.00-1.80L123.00-1.80Q123.15-2.76 121.47-3.07L121.47-3.07L120.01-3.38Q118.51-3.80 118.51-5.07L118.51-5.07Q118.63-7.14 120.97-7.21L120.97-7.21Q123.62-7.21 123.69-4.99ZM132.17 0L131.48-2.03L128.64-2.03L127.91 0L126.96 0L129.60-7.02L130.68-7.02L133.21 0L132.17 0ZM130.06-5.99L128.95-2.88L131.14-2.88L130.10-5.99L130.06-5.99ZM137.83-5.83L137.80-5.83L136.18 0L135.19 0L133.35-7.02L134.34-7.02L135.69-1.30L135.72-1.30L137.30-7.02L138.33-7.02L139.91-1.30L139.95-1.30L141.25-7.02L142.29-7.02L140.44 0L139.45 0L137.83-5.83ZM147.68 0L146.99-2.03L144.15-2.03L143.42 0L142.46 0L145.11-7.02L146.18-7.02L148.71 0L147.68 0ZM145.57-5.99L144.45-2.88L146.64-2.88L145.61-5.99L145.57-5.99ZM152.80-3.03L150.50-3.03L150.50 0L149.54 0L149.54-7.02L152.80-7.02Q155.14-7.02 155.14-5.14L155.14-5.14Q155.14-3.99 154.14-3.45L154.14-3.45Q154.99-3.22 154.99-2.11L154.99-2.11L155.07-0.84Q155.03-0.31 155.41-0.15L155.41-0.15L155.41 0L154.22 0Q154.11-0.50 154.07-1.77L154.07-1.77Q154.11-3.03 152.80-3.03L152.80-3.03ZM152.88-6.25L150.50-6.25L150.50-3.84L152.72-3.84Q154.14-3.84 154.14-5.07L154.14-5.07Q154.14-6.25 152.88-6.25L152.88-6.25ZM159.23 0L156.39 0L156.39-7.02L159.27-7.02Q162.11-6.87 162.22-3.61L162.22-3.61Q162.07-0.08 159.23 0L159.23 0ZM159.11-6.25L157.35-6.25L157.35-0.81L159.19-0.81Q161.19-0.92 161.26-3.53L161.26-3.53Q161.23-6.18 159.11-6.25L159.11-6.25ZM164.35-0.84L168.57-0.84L168.57 0L163.39 0L163.39-7.02L168.50-7.02L168.50-6.22L164.35-6.22L164.35-4.03L168.19-4.03L168.19-3.18L164.35-3.18L164.35-0.84ZM172.55 0L169.71 0L169.71-7.02L172.58-7.02Q175.42-6.87 175.54-3.61L175.54-3.61Q175.39-0.08 172.55 0L172.55 0ZM172.43-6.25L170.67-6.25L170.67-0.81L172.51-0.81Q174.50-0.92 174.58-3.53L174.58-3.53Q174.54-6.18 172.43-6.25L172.43-6.25Z" transform="translate(-0.15348539756981455, 7.213813685781284)"></path></g></g></g></g></g><defs v-gra="od"></defs></svg>